<svg width="208" height="90" viewBox="0 0 208 90" fill="none" xmlns="http://www.w3.org/2000/svg">
<circle cx="167.386" cy="49.9999" r="40" fill="#FDCCCC"/>
<g clip-path="url(#clip0)">
<path d="M139.258 12.1831L183.297 7.43203C184.807 7.26912 186.163 8.36117 186.326 9.87119L189.646 40.6422C189.724 41.3673 189.511 42.0938 189.053 42.6619L183.135 50.0118L177.217 57.3616C176.759 57.9297 176.095 58.2928 175.37 58.371L144.599 61.6907C143.089 61.8536 141.732 60.7616 141.57 59.2515L136.818 15.2122C136.656 13.7022 137.748 12.346 139.258 12.1831Z" fill="#FFEA79" stroke="#F2A3A3" stroke-width="2.5"/>
<path d="M139.258 12.1831L183.297 7.43203C184.807 7.26912 186.163 8.36117 186.326 9.87119L189.394 38.3126C189.557 39.8226 188.465 41.1787 186.955 41.3417L183.133 41.754L179.311 42.1663C176.428 42.4773 174.343 45.0664 174.654 47.9492L175.067 51.7712L175.479 55.5932C175.642 57.1033 174.55 58.4594 173.04 58.6224L144.599 61.6907C143.089 61.8536 141.732 60.7616 141.57 59.2515L136.818 15.2122C136.656 13.7022 137.748 12.346 139.258 12.1831Z" stroke="#F2A3A3" stroke-width="2.5"/>
</g>
<path d="M151.126 21.5936L196.431 23.1757C197.949 23.2287 199.137 24.5022 199.084 26.02L197.978 57.6772C197.953 58.4061 197.639 59.095 197.105 59.5925L190.043 66.1784L182.98 72.7644C182.447 73.2618 181.738 73.5269 181.009 73.5015L149.352 72.396C147.834 72.343 146.646 71.0695 146.699 69.5517L148.281 24.246C148.334 22.7281 149.608 21.5406 151.126 21.5936Z" fill="#FFEA79" stroke="#F2A3A3" stroke-width="2.5"/>
<path d="M151.126 21.5936L196.431 23.1757C197.949 23.2287 199.137 24.5022 199.084 26.02L198.06 55.3355C198.007 56.8533 196.734 58.0408 195.216 57.9878L191.218 57.8482L187.221 57.7086C184.323 57.6075 181.892 59.8745 181.791 62.7722L181.651 66.7698L181.511 70.7673C181.458 72.2852 180.185 73.4727 178.667 73.4197L149.352 72.396C147.834 72.343 146.646 71.0695 146.699 69.5517L148.281 24.246C148.334 22.7281 149.608 21.5406 151.126 21.5936Z" stroke="#F2A3A3" stroke-width="2.5"/>
<path d="M103.767 59.1988C104.33 59.7552 105.236 59.7526 105.795 59.1932L113.619 51.37C114.595 50.3937 114.595 48.8108 113.619 47.8345L105.801 40.0166C105.239 39.4547 104.328 39.4534 103.765 40.0138V40.0138C103.199 40.5767 103.198 41.4924 103.763 42.0564L109.841 48.125H93.4773C92.6614 48.125 92 48.7864 92 49.6023V49.6023C92 50.4181 92.6614 51.0795 93.4773 51.0795H109.841L103.761 57.1591C103.197 57.723 103.2 58.6381 103.767 59.1988V59.1988Z" fill="#F6B2B2"/>
<circle cx="40" cy="50" r="40" fill="#FDCCCC"/>
<rect x="14" y="51" width="43" height="22" rx="4" fill="white"/>
<rect x="20" y="57" width="18" height="2.5" rx="1.25" fill="#F2A3A3"/>
<rect x="20" y="65.25" width="24" height="2.5" rx="1.25" fill="#F2A3A3"/>
<rect x="22" y="22" width="43" height="22" rx="4" fill="white"/>
<rect x="29" y="28" width="28.9" height="2.5" rx="1.25" fill="#F2A3A3"/>
<rect x="29" y="36.5" width="16" height="2.5" rx="1.25" fill="#F2A3A3"/>
<defs>
<clipPath id="clip0">
<rect width="62.7538" height="62.7538" fill="white" transform="translate(129.386 6.73102) rotate(-6.15744)"/>
</clipPath>
</defs>
</svg>
