<svg width="208" height="90" viewBox="0 0 208 90" fill="none" xmlns="http://www.w3.org/2000/svg">
<circle cx="168" cy="49.9999" r="40" fill="#FDCCCC"/>
<g clip-path="url(#clip0)">
<path d="M139.871 12.1831L183.911 7.43203C185.421 7.26912 186.777 8.36117 186.94 9.87119L190.259 40.6422C190.338 41.3673 190.125 42.0938 189.667 42.6619L183.749 50.0118L177.83 57.3616C177.373 57.9297 176.708 58.2928 175.983 58.371L145.212 61.6907C143.702 61.8536 142.346 60.7616 142.183 59.2515L137.432 15.2122C137.269 13.7022 138.361 12.346 139.871 12.1831Z" fill="#FFEA79" stroke="#F2A3A3" stroke-width="2.5"/>
<path d="M139.871 12.1831L183.911 7.43203C185.421 7.26912 186.777 8.36117 186.94 9.87119L190.008 38.3126C190.171 39.8226 189.079 41.1787 187.569 41.3417L183.747 41.754L179.925 42.1663C177.042 42.4773 174.957 45.0664 175.268 47.9492L175.68 51.7712L176.093 55.5932C176.256 57.1033 175.164 58.4594 173.654 58.6224L145.212 61.6907C143.702 61.8536 142.346 60.7616 142.183 59.2515L137.432 15.2122C137.269 13.7022 138.361 12.346 139.871 12.1831Z" stroke="#F2A3A3" stroke-width="2.5"/>
</g>
<path d="M151.739 21.5936L197.045 23.1757C198.563 23.2287 199.75 24.5022 199.697 26.02L198.592 57.6772C198.566 58.4061 198.252 59.095 197.719 59.5925L190.657 66.1784L183.594 72.7644C183.061 73.2618 182.351 73.5269 181.622 73.5015L149.965 72.396C148.447 72.343 147.26 71.0695 147.313 69.5517L148.895 24.246C148.948 22.7281 150.221 21.5406 151.739 21.5936Z" fill="#FFEA79" stroke="#F2A3A3" stroke-width="2.5"/>
<path d="M151.739 21.5936L197.045 23.1757C198.563 23.2287 199.75 24.5022 199.697 26.02L198.674 55.3355C198.621 56.8533 197.347 58.0408 195.829 57.9878L191.832 57.8482L187.834 57.7086C184.937 57.6075 182.505 59.8745 182.404 62.7722L182.265 66.7698L182.125 70.7673C182.072 72.2852 180.799 73.4727 179.281 73.4197L149.965 72.396C148.447 72.343 147.26 71.0695 147.313 69.5517L148.895 24.246C148.948 22.7281 150.221 21.5406 151.739 21.5936Z" stroke="#F2A3A3" stroke-width="2.5"/>
<circle cx="40" cy="50" r="40" fill="#FDCCCC"/>
<path fill-rule="evenodd" clip-rule="evenodd" d="M24.25 36C23.5596 36 23 36.5596 23 37.25C23 37.9404 23.5596 38.5 24.25 38.5H50.65C51.3404 38.5 51.9 37.9404 51.9 37.25C51.9 36.5596 51.3404 36 50.65 36H24.25ZM24.25 44.5C23.5596 44.5 23 45.0596 23 45.75C23 46.4404 23.5596 47 24.25 47H55.75C56.4404 47 57 46.4404 57 45.75C57 45.0596 56.4404 44.5 55.75 44.5H24.25ZM23 54.25C23 53.5596 23.5596 53 24.25 53H43.85C44.5404 53 45.1 53.5596 45.1 54.25C45.1 54.9404 44.5404 55.5 43.85 55.5H24.25C23.5596 55.5 23 54.9404 23 54.25ZM24.25 61.5C23.5596 61.5 23 62.0596 23 62.75C23 63.4404 23.5596 64 24.25 64H55.75C56.4404 64 57 63.4404 57 62.75C57 62.0596 56.4404 61.5 55.75 61.5H24.25Z" fill="#F2A3A3"/>
<path d="M104.064 61.9451C104.646 62.5268 105.59 62.5242 106.169 61.9392L114.261 53.7581C115.224 52.784 115.224 51.216 114.261 50.2419L106.174 42.0663C105.593 41.4788 104.645 41.4775 104.062 42.0634V42.0634C103.485 42.6429 103.485 43.5789 104.06 44.1595L110.309 50.4673H93.5327C92.6862 50.4673 92 51.1535 92 52V52C92 52.8465 92.6862 53.5327 93.5327 53.5327H110.309L104.059 59.8519C103.484 60.4324 103.487 61.3678 104.064 61.9451V61.9451Z" fill="#F6B2B2"/>
<defs>
<clipPath id="clip0">
<rect width="62.7538" height="62.7538" fill="white" transform="translate(130 6.73102) rotate(-6.15744)"/>
</clipPath>
</defs>
</svg>
