<svg width="120" height="120" viewBox="0 0 120 120" fill="none" xmlns="http://www.w3.org/2000/svg">
<circle cx="60" cy="60" r="60" fill="#EABFFF"/>
<g clip-path="url(#clip0)">
<path d="M23.0632 50.9047C22.6702 49.4377 23.5408 47.9297 25.0078 47.5366L63.1857 37.3069C64.6528 36.9138 66.1607 37.7844 66.5538 39.2514L73.6999 65.9211C73.8887 66.6256 73.7898 67.3762 73.4252 68.0078L69.2128 75.3038L65.0005 82.5998C64.6358 83.2314 64.0352 83.6923 63.3307 83.8811L36.661 91.0272C35.194 91.4203 33.6861 90.5497 33.293 89.0826L23.0632 50.9047Z" fill="#FFEA79" stroke="#F2A3A3" stroke-width="2.5"/>
<path d="M23.0632 50.9047C22.6702 49.4377 23.5408 47.9297 25.0078 47.5366L63.1857 37.3069C64.6528 36.9138 66.1607 37.7844 66.5538 39.2514L73.0934 63.6578C73.4865 65.1248 72.6159 66.6327 71.1489 67.0258L68.1268 67.8356L65.1047 68.6454C62.304 69.3958 60.6419 72.2746 61.3924 75.0753L62.2022 78.0974L63.0119 81.1195C63.405 82.5865 62.5344 84.0944 61.0674 84.4875L36.661 91.0272C35.194 91.4203 33.6861 90.5497 33.293 89.0826L23.0632 50.9047Z" stroke="#C590DF" stroke-width="2.5"/>
</g>
<g clip-path="url(#clip1)">
<path d="M33.1651 41.0612C33.0064 39.5508 34.1021 38.1976 35.6126 38.0388L79.6648 33.4088C81.1752 33.25 82.5284 34.3458 82.6872 35.8563L85.9223 66.6362C85.9985 67.3616 85.7835 68.0875 85.3245 68.6543L79.3859 75.9879L73.4473 83.3215C72.9883 83.8883 72.3229 84.2496 71.5976 84.3258L40.8176 87.5609C39.3071 87.7197 37.9539 86.6239 37.7952 85.1134L33.1651 41.0612Z" fill="#FFEA79" stroke="#C590DF" stroke-width="2.5"/>
<path d="M33.1651 41.0612C33.0064 39.5508 34.1021 38.1976 35.6126 38.0388L79.6648 33.4088C81.1752 33.25 82.5284 34.3458 82.6872 35.8563L85.6773 64.3059C85.8361 65.8164 84.7403 67.1696 83.2299 67.3283L79.4067 67.7301L75.5835 68.132C72.6999 68.4351 70.608 71.0184 70.9111 73.902L71.3129 77.7252L71.7147 81.5483C71.8735 83.0588 70.7777 84.412 69.2672 84.5707L40.8176 87.5609C39.3071 87.7197 37.9539 86.6239 37.7952 85.1134L33.1651 41.0612Z" stroke="#C590DF" stroke-width="2.5"/>
</g>
<path d="M46.5833 35.3333C46.5833 33.8145 47.8145 32.5833 49.3333 32.5833H94.6667C96.1854 32.5833 97.4166 33.8145 97.4166 35.3333V67.0098C97.4166 67.7391 97.1269 68.4386 96.6112 68.9543L89.7828 75.7828L82.9543 82.6112C82.4386 83.1269 81.7391 83.4166 81.0098 83.4166H49.3333C47.8145 83.4166 46.5833 82.1854 46.5833 80.6666V35.3333Z" fill="#FFEA79" stroke="#C590DF" stroke-width="2.5"/>
<path d="M46.5833 35.3333C46.5833 33.8145 47.8145 32.5833 49.3333 32.5833H94.6667C96.1854 32.5833 97.4166 33.8145 97.4166 35.3333V64.6667C97.4166 66.1854 96.1854 67.4166 94.6666 67.4166H90.6666H86.6666C83.7672 67.4166 81.4166 69.7672 81.4166 72.6666V76.6666V80.6666C81.4166 82.1854 80.1854 83.4166 78.6666 83.4166H49.3333C47.8145 83.4166 46.5833 82.1854 46.5833 80.6666V35.3333Z" stroke="#C590DF" stroke-width="2.5"/>
<defs>
<clipPath id="clip0">
<rect width="57.0297" height="57.0297" fill="white" transform="translate(15 44.004) rotate(-15)"/>
</clipPath>
<clipPath id="clip1">
<rect width="62.7538" height="62.7538" fill="white" transform="translate(25.7563 32.5596) rotate(-6)"/>
</clipPath>
</defs>
</svg>
