<svg width="207" height="84" viewBox="0 0 207 84" fill="none" xmlns="http://www.w3.org/2000/svg">
<g clip-path="url(#clip0)">
<circle cx="40" cy="43.9999" r="40" fill="#635FF9"/>
<g clip-path="url(#clip1)">
<path d="M11.8713 6.18313L55.9106 1.43203C57.4206 1.26912 58.7768 2.36117 58.9397 3.87119L62.2593 34.6422C62.3376 35.3673 62.1245 36.0938 61.6671 36.6619L55.7486 44.0118L49.8302 51.3616C49.3728 51.9297 48.7084 52.2928 47.9833 52.371L17.2123 55.6907C15.7023 55.8536 14.3461 54.7616 14.1832 53.2515L9.43209 9.21224C9.26918 7.70221 10.3612 6.34604 11.8713 6.18313Z" fill="white" stroke="#F2A3A3" stroke-width="2.5"/>
<path d="M11.8713 6.18313L55.9106 1.43203C57.4206 1.26912 58.7768 2.36117 58.9397 3.87119L62.008 32.3126C62.1709 33.8226 61.0789 35.1787 59.5688 35.3417L55.7468 35.754L51.9247 36.1663C49.042 36.4773 46.9571 39.0664 47.2681 41.9492L47.6805 45.7712L48.0928 49.5932C48.2557 51.1033 47.1637 52.4594 45.6536 52.6224L17.2123 55.6907C15.7023 55.8536 14.3461 54.7616 14.1832 53.2515L9.43209 9.21224C9.26918 7.70221 10.3612 6.34604 11.8713 6.18313Z" stroke="#817EF7" stroke-width="2.5"/>
</g>
<path d="M20.895 18.246C20.948 16.7281 22.2215 15.5406 23.7393 15.5936L69.0451 17.1757C70.5629 17.2287 71.7504 18.5022 71.6974 20.02L70.5919 51.6772C70.5665 52.4061 70.2525 53.095 69.7191 53.5924L62.6565 60.1784L55.5939 66.7644C55.0605 67.2618 54.3514 67.5269 53.6225 67.5015L21.9653 66.396C20.4474 66.343 19.2599 65.0695 19.3129 63.5517L20.895 18.246Z" fill="white" stroke="#817EF7" stroke-width="2.5"/>
<path d="M20.895 18.246C20.948 16.7281 22.2215 15.5406 23.7393 15.5936L69.0451 17.1757C70.5629 17.2287 71.7504 18.5022 71.6974 20.02L70.6737 49.3355C70.6207 50.8533 69.3473 52.0408 67.8294 51.9878L63.8318 51.8482L59.8343 51.7086C56.9365 51.6075 54.5054 53.8745 54.4042 56.7722L54.2646 60.7698L54.125 64.7673C54.072 66.2852 52.7986 67.4727 51.2807 67.4197L21.9653 66.396C20.4474 66.343 19.2599 65.0695 19.3129 63.5517L20.895 18.246Z" stroke="#817EF7" stroke-width="2.5"/>
<path d="M103.767 53.1989C104.33 53.7552 105.236 53.7527 105.795 53.1932L113.619 45.3701C114.595 44.3938 114.595 42.8109 113.619 41.8346L105.801 34.0167C105.239 33.4548 104.328 33.4535 103.765 34.0139C103.199 34.5768 103.198 35.4925 103.763 36.0565L109.841 42.1251H93.4773C92.6614 42.1251 92 42.7865 92 43.6023C92 44.4182 92.6614 45.0796 93.4773 45.0796H109.841L103.761 51.1591C103.197 51.7231 103.2 52.6381 103.767 53.1989Z" fill="#635FF9"/>
<circle cx="167" cy="44" r="40" fill="#635FF9"/>
<rect x="142.25" y="1.25" width="50.5" height="65.5" rx="2.75" fill="white" stroke="#817EF7" stroke-width="2.5"/>
<rect x="150" y="9" width="30" height="2.5" rx="1.25" fill="#635FF9"/>
<rect x="150" y="19.5" width="35" height="2.5" rx="1.25" fill="#635FF9"/>
<rect x="150" y="30" width="23" height="2.5" rx="1.25" fill="#635FF9"/>
</g>
<defs>
<clipPath id="clip0">
<rect width="207" height="84" fill="white"/>
</clipPath>
<clipPath id="clip1">
<rect width="62.7538" height="62.7538" fill="white" transform="translate(2 0.731018) rotate(-6.15744)"/>
</clipPath>
</defs>
</svg>
